<?xml version="1.0" standalone="no"?>
<!DOCTYPE svg PUBLIC "-//W3C//DTD SVG 20010904//EN"
 "http://www.w3.org/TR/2001/REC-SVG-20010904/DTD/svg10.dtd">
<svg version="1.0" xmlns="http://www.w3.org/2000/svg"
 width="860.000000pt" height="476.000000pt" viewBox="0 0 860.000000 476.000000"
 preserveAspectRatio="xMidYMid meet">

<g transform="translate(0.000000,476.000000) scale(0.100000,-0.100000)"
fill="#000000" stroke="none">
<path d="M4350 4739 c-30 -5 -88 -6 -127 -3 -44 3 -86 1 -107 -6 -32 -10 -88
-62 -98 -90 -2 -7 -42 -13 -113 -15 -208 -8 -346 -43 -458 -118 -71 -49 -95
-85 -104 -156 -4 -36 -12 -55 -25 -62 -10 -5 -16 -14 -13 -19 3 -4 -3 -6 -13
-4 -18 5 -45 -13 -171 -120 -47 -40 -81 -77 -81 -88 0 -11 -7 -18 -18 -18 -25
0 -104 -84 -140 -150 -34 -60 -82 -215 -82 -261 0 -19 5 -29 15 -29 19 0 19
-2 0 -47 -8 -19 -19 -72 -25 -117 -5 -44 -12 -96 -16 -114 -6 -31 -5 -33 16
-30 21 3 26 -4 41 -54 9 -31 26 -110 38 -175 30 -164 30 -165 43 -161 6 2 17
20 23 39 l12 34 17 -40 c10 -22 33 -86 52 -143 43 -131 52 -147 113 -207 28
-27 51 -55 51 -61 0 -22 34 -73 57 -85 12 -6 33 -9 47 -5 32 8 102 74 90 85
-5 5 -38 4 -73 -2 l-64 -11 -26 34 c-14 19 -47 57 -73 85 -27 27 -48 55 -48
61 0 6 18 25 40 43 22 17 40 38 40 46 0 28 -21 26 -60 -5 l-40 -32 -9 24 c-40
108 -111 332 -116 367 l-7 44 68 -73 c73 -77 156 -139 231 -172 47 -21 79 -18
69 7 -8 21 5 19 116 -17 115 -38 134 -33 105 27 -9 20 -17 40 -17 45 0 5 26
-2 58 -15 70 -28 223 -61 245 -52 25 9 21 22 -19 67 -20 22 -35 40 -33 40 2 0
44 -14 93 -30 57 -19 93 -27 99 -21 6 6 -13 34 -52 77 -33 37 -61 70 -61 75 0
4 39 -10 86 -32 98 -47 245 -99 256 -93 12 8 9 39 -4 52 -16 16 -1 16 87 -3
104 -21 107 -15 61 121 -20 59 -35 109 -33 110 2 2 43 -36 92 -84 91 -88 219
-182 249 -182 19 0 19 -2 1 49 -8 22 -12 41 -9 41 4 0 52 -23 108 -51 l101
-51 2 -61 c2 -93 3 -100 16 -116 10 -12 9 -13 -2 -6 -11 6 -13 4 -8 -8 3 -9
-1 -23 -10 -32 -13 -14 -14 -24 -4 -72 6 -32 16 -60 23 -64 6 -4 8 -14 5 -22
-9 -25 53 -199 68 -193 8 3 19 -2 25 -10 10 -11 9 -14 -4 -14 -9 0 -16 -3 -16
-6 0 -8 101 -154 111 -160 18 -11 30 7 17 24 -7 10 2 4 19 -12 30 -27 36 -28
92 -23 33 3 77 14 98 25 49 27 153 44 159 27 3 -6 8 -56 12 -110 5 -64 11
-100 20 -103 14 -4 15 18 2 133 -9 87 -3 105 35 105 36 0 141 58 168 93 30 40
77 131 77 151 0 8 3 17 8 20 4 2 178 -44 387 -104 209 -59 384 -105 388 -103
5 3 5 9 0 13 -4 5 -178 57 -386 116 l-378 107 8 51 c15 92 8 324 -11 396 -38
141 -117 252 -188 267 -16 3 -28 12 -28 19 0 8 -24 21 -60 31 -45 12 -60 21
-60 34 0 20 -78 173 -112 221 -15 22 -27 29 -43 26 -23 -5 -27 5 -11 30 10 17
-12 48 -103 150 -81 90 -194 185 -337 284 -152 105 -347 217 -383 220 -17 1
-31 8 -31 15 0 18 -44 38 -141 65 -77 21 -104 23 -319 23 -129 0 -212 2 -185
6 28 4 128 8 224 8 186 1 304 -17 381 -59 19 -11 53 -27 75 -37 109 -49 195
-99 355 -204 203 -135 329 -247 451 -406 45 -57 86 -102 92 -100 23 7 26 71 6
144 -10 40 -19 86 -19 102 0 20 -6 30 -20 34 -21 5 -27 36 -11 65 20 37 -62
290 -132 406 -92 152 -246 274 -405 321 -102 31 -290 42 -402 24z m-660 -308
c0 -9 -120 -34 -127 -27 -3 2 24 11 59 19 35 8 64 15 66 16 1 0 2 -3 2 -8z
m280 -25 c0 -2 -7 -7 -16 -10 -8 -3 -12 -2 -9 4 6 10 25 14 25 6z m-120 -26
c0 -5 -5 -10 -11 -10 -5 0 -7 5 -4 10 3 6 8 10 11 10 2 0 4 -4 4 -10z m53 -4
c3 -8 -2 -20 -11 -28 -15 -12 -16 -11 -3 5 12 15 9 21 -11 18 -5 0 -8 4 -8 9
0 15 27 12 33 -4z m207 10 c0 -2 -7 -7 -16 -10 -8 -3 -12 -2 -9 4 6 10 25 14
25 6z m-431 -29 c0 -9 -2 -8 -6 1 -2 6 -10 9 -15 6 -7 -4 -8 -2 -4 5 9 13 26
5 25 -12z m126 3 c3 -6 -1 -7 -9 -4 -18 7 -21 14 -7 14 6 0 13 -4 16 -10z
m-58 -22 c-2 -21 -19 -19 -22 3 -2 9 3 16 10 16 8 0 13 -9 12 -19z m-192 -7
c3 -5 2 -12 -3 -15 -5 -3 -9 1 -9 9 0 17 3 19 12 6z m445 -43 c0 -4 -9 -7 -20
-5 -29 5 -33 13 -5 13 14 0 25 -4 25 -8z m-610 -23 c-7 -9 -15 -13 -19 -10 -3
3 1 10 9 15 21 14 24 12 10 -5z m1081 -12 c13 -16 12 -17 -3 -4 -17 13 -22 21
-14 21 2 0 10 -8 17 -17z m49 -17 c0 -2 -7 -7 -16 -10 -8 -3 -12 -2 -9 4 6 10
25 14 25 6z m17 -15 c0 -11 -5 -18 -9 -15 -4 3 -5 11 -1 19 7 21 12 19 10 -4z
m-27 -27 c0 -2 -7 -4 -15 -4 -8 0 -15 4 -15 10 0 5 7 7 15 4 8 -4 15 -8 15
-10z m-355 -12 c-3 -3 -11 0 -18 7 -9 10 -8 11 6 5 10 -3 15 -9 12 -12z m412
-7 c4 -4 3 -5 -4 -2 -6 4 -13 2 -15 -5 -3 -8 -6 -6 -10 4 -7 17 15 19 29 3z
m-42 -5 c3 -6 -1 -7 -9 -4 -18 7 -21 14 -7 14 6 0 13 -4 16 -10z m-295 -14 c0
-2 -8 -10 -17 -17 -16 -13 -17 -12 -4 4 13 16 21 21 21 13z m344 -4 c3 -5 -1
-9 -9 -9 -8 0 -12 4 -9 9 3 4 7 8 9 8 2 0 6 -4 9 -8z m54 -22 c-7 -11 -17 -20
-22 -20 -5 0 -1 9 9 20 10 11 20 20 22 20 2 0 -2 -9 -9 -20z m25 -33 c-3 -5
-10 -4 -15 1 -6 6 -7 16 -3 22 6 9 9 9 16 -1 4 -7 5 -17 2 -22z m-116 8 c0 -8
-4 -12 -9 -9 -5 3 -6 10 -3 15 9 13 12 11 12 -6z m-60 -10 c0 -8 -4 -12 -9 -9
-5 3 -6 10 -3 15 9 13 12 11 12 -6z m111 -20 c-3 -3 -9 2 -12 12 -6 14 -5 15
5 6 7 -7 10 -15 7 -18z m53 -2 c13 -16 12 -17 -3 -4 -17 13 -22 21 -14 21 2 0
10 -8 17 -17z m-21 -28 c0 -5 -5 -3 -10 5 -5 8 -10 20 -10 25 0 6 5 3 10 -5 5
-8 10 -19 10 -25z m-46 9 c3 -8 2 -12 -4 -9 -6 3 -10 1 -10 -6 0 -7 -2 -10 -5
-7 -5 5 4 38 10 38 2 0 6 -7 9 -16z m91 -14 c4 -6 11 -8 16 -5 5 3 6 -1 2 -10
-4 -12 -8 -13 -13 -5 -4 7 -14 16 -21 21 -9 6 -10 9 -2 9 6 0 15 -5 18 -10z
m143 -25 c-3 -3 -9 2 -12 12 -6 14 -5 15 5 6 7 -7 10 -15 7 -18z m47 14 c11
-16 1 -19 -13 -3 -7 8 -8 14 -3 14 5 0 13 -5 16 -11z m-227 -24 c-3 -3 -9 2
-12 12 -6 14 -5 15 5 6 7 -7 10 -15 7 -18z m146 4 c9 8 13 7 13 -4 0 -7 -5
-13 -11 -12 -6 1 -10 -4 -8 -11 1 -8 -2 -11 -7 -8 -5 3 -14 -1 -21 -9 -10 -12
-16 -13 -26 -4 -8 6 -14 16 -14 22 0 6 6 3 13 -7 12 -16 14 -16 31 2 11 13 14
22 7 27 -6 3 -11 12 -11 18 0 7 5 4 11 -6 8 -13 14 -15 23 -8z m113 -15 c-3
-3 -12 -4 -19 -1 -8 3 -5 6 6 6 11 1 17 -2 13 -5z m53 -39 c0 -12 -19 -12 -23
0 -4 9 -1 12 9 8 7 -3 14 -7 14 -8z m-147 -42 c-3 -7 -6 -13 -8 -13 -2 0 -5 6
-8 13 -3 8 1 14 8 14 7 0 11 -6 8 -14z m107 -23 c0 -5 -2 -10 -4 -10 -3 0 -8
5 -11 10 -3 6 -1 10 4 10 6 0 11 -4 11 -10z m-55 -18 c-3 -3 -11 0 -18 7 -9
10 -8 11 6 5 10 -3 15 -9 12 -12z m92 -14 c-3 -8 -6 -5 -6 6 -1 11 2 17 5 13
3 -3 4 -12 1 -19z m-33 4 c3 -5 -1 -9 -9 -9 -8 0 -15 4 -15 9 0 4 4 8 9 8 6 0
12 -4 15 -8z m-109 -12 c3 -5 1 -10 -4 -10 -6 0 -11 5 -11 10 0 6 2 10 4 10 3
0 8 -4 11 -10z m45 0 c0 -5 -2 -10 -4 -10 -3 0 -8 5 -11 10 -3 6 -1 10 4 10 6
0 11 -4 11 -10z m40 -14 c0 -2 -8 -10 -17 -17 -16 -13 -17 -12 -4 4 13 16 21
21 21 13z m113 -29 c3 -8 -1 -14 -9 -14 -15 0 -18 9 -7 20 9 9 10 9 16 -6z
m112 -6 c3 -5 2 -12 -3 -15 -5 -3 -9 1 -9 9 0 17 3 19 12 6z m43 -46 c-3 -3
-9 2 -12 12 -6 14 -5 15 5 6 7 -7 10 -15 7 -18z m-217 -12 c-12 -20 -14 -14
-5 12 4 9 9 14 11 11 3 -2 0 -13 -6 -23z m110 4 c-10 -9 -11 -8 -5 6 3 10 9
15 12 12 3 -3 0 -11 -7 -18z m69 3 c0 -5 -5 -10 -11 -10 -5 0 -7 5 -4 10 3 6
8 10 11 10 2 0 4 -4 4 -10z m-123 -36 c-3 -3 -12 -4 -19 -1 -8 3 -5 6 6 6 11
1 17 -2 13 -5z m27 -3 c3 -5 -2 -15 -12 -22 -15 -12 -16 -12 -5 2 7 9 10 19 6
22 -3 4 -4 7 0 7 3 0 8 -4 11 -9z m27 -14 c-10 -9 -11 -8 -5 6 3 10 9 15 12
12 3 -3 0 -11 -7 -18z m34 13 c3 -5 1 -10 -4 -10 -6 0 -11 5 -11 10 0 6 2 10
4 10 3 0 8 -4 11 -10z m-162 -65 c-3 -9 -8 -14 -10 -11 -3 3 -2 9 2 15 9 16
15 13 8 -4z m24 -40 c0 -8 -4 -12 -9 -9 -5 3 -6 10 -3 15 9 13 12 11 12 -6z
m134 -98 c-10 -9 -11 -8 -5 6 3 10 9 15 12 12 3 -3 0 -11 -7 -18z m273 -46
c-9 -9 -34 -9 -34 -1 0 5 9 8 20 7 10 -1 17 -3 14 -6z m-198 -33 c3 -4 -1 -5
-10 -4 -8 1 -18 5 -22 8 -3 4 1 5 10 4 8 -1 18 -5 22 -8z m215 -55 c13 -16 12
-17 -3 -4 -10 7 -18 15 -18 17 0 8 8 3 21 -13z m-321 -27 c0 -2 -7 -7 -16 -10
-8 -3 -12 -2 -9 4 6 10 25 14 25 6z m150 -41 c-7 -8 -17 -15 -23 -15 -6 0 -2
7 9 15 25 19 30 19 14 0z m205 -27 c6 -4 2 -8 -7 -8 -10 0 -18 7 -18 17 0 9 3
12 8 7 4 -5 12 -12 17 -16z m-25 -35 c0 -10 -4 -14 -8 -8 -4 6 -11 13 -16 18
-5 4 -2 7 7 7 10 0 17 -8 17 -17z m-256 -47 c-3 -9 -12 -12 -22 -9 -15 6 -9
11 25 22 1 1 0 -5 -3 -13z m496 -16 c38 -27 86 -126 105 -215 30 -142 12 -304
-45 -422 -37 -75 -78 -108 -135 -108 -57 0 -98 33 -135 108 -45 91 -63 192
-57 312 14 264 139 416 267 325z m-310 -3 c0 -2 -9 -12 -20 -22 -19 -17 -20
-17 -20 -1 0 9 4 15 9 11 5 -3 12 -1 16 5 6 10 15 14 15 7z m-394 -42 c0 -14
-4 -25 -8 -25 -10 0 -10 13 -2 34 9 23 12 20 10 -9z m341 3 c-3 -8 -6 -5 -6 6
-1 11 2 17 5 13 3 -3 4 -12 1 -19z m66 -9 c-8 -8 -13 -7 -18 2 -5 8 -4 10 3 5
7 -4 12 -2 12 5 0 7 3 9 7 6 4 -4 2 -12 -4 -18z m-214 -33 c-3 -3 -11 5 -18
17 -13 21 -12 21 5 5 10 -10 16 -20 13 -22z m72 1 c-10 -9 -11 -8 -5 6 3 10 9
15 12 12 3 -3 0 -11 -7 -18z m-276 -20 c-1 -13 -4 -27 -7 -33 -3 -5 -9 -24
-13 -42 -4 -18 -9 -31 -12 -29 -6 7 18 127 26 127 4 0 6 -10 6 -23z m110 -7
c-3 -5 -11 -10 -16 -10 -6 0 -7 5 -4 10 3 6 11 10 16 10 6 0 7 -4 4 -10z m188
-25 c-10 -13 -25 -27 -33 -30 -8 -4 -2 8 14 24 36 37 43 40 19 6z m77 -1 c0
-8 -19 -13 -24 -6 -3 5 1 9 9 9 8 0 15 -2 15 -3z m10 -30 c0 -8 -19 -13 -24
-6 -3 5 1 9 9 9 8 0 15 -2 15 -3z m-60 -14 c0 -5 -5 -10 -11 -10 -5 0 -7 5 -4
10 3 6 8 10 11 10 2 0 4 -4 4 -10z m-137 -25 c-7 -20 -29 -19 -37 1 -5 14 -4
15 9 4 14 -12 19 -7 16 13 -1 5 3 6 8 2 6 -3 8 -12 4 -20z m-60 -6 c-4 -15 -8
-17 -14 -8 -6 11 4 28 18 29 0 0 -1 -9 -4 -21z m-28 -19 c3 -6 -1 -7 -9 -4
-18 7 -21 14 -7 14 6 0 13 -4 16 -10z m189 -15 c-4 -8 -8 -15 -10 -15 -2 0 -4
7 -4 15 0 8 4 15 10 15 5 0 7 -7 4 -15z m66 11 c0 -2 -8 -10 -17 -17 -16 -13
-17 -12 -4 4 13 16 21 21 21 13z m-225 -15 c3 -5 2 -12 -3 -15 -5 -3 -9 1 -9
9 0 17 3 19 12 6z m55 -15 c0 -2 -6 -9 -14 -15 -11 -9 -16 -9 -22 0 -4 7 -3 9
4 5 6 -3 13 -2 17 4 6 10 15 14 15 6z m103 -21 c4 10 10 15 14 12 3 -4 0 -13
-7 -22 -10 -12 -16 -13 -26 -4 -8 6 -11 16 -7 22 4 6 9 3 13 -8 6 -18 7 -18
13 0z m-103 -15 c0 -5 -5 -10 -11 -10 -5 0 -7 5 -4 10 3 6 8 10 11 10 2 0 4
-4 4 -10z m65 -10 c-3 -5 -12 -10 -18 -10 -7 0 -6 4 3 10 19 12 23 12 15 0z
m-85 -22 c0 -4 -5 -8 -11 -8 -5 0 -8 -4 -4 -9 3 -5 2 -12 -3 -15 -4 -2 -8 6
-8 18 0 12 6 23 13 23 7 0 13 -4 13 -9z m20 -18 c0 -5 -5 -10 -11 -10 -5 0 -7
5 -4 10 3 6 8 10 11 10 2 0 4 -4 4 -10z m112 -27 c-6 -3 -9 -9 -6 -15 4 -6 -1
-6 -13 1 -11 6 -24 7 -28 3 -5 -4 -6 -2 -3 3 4 6 19 11 35 11 15 1 22 -1 15
-3z m36 -24 c-3 -8 -7 -3 -11 10 -4 17 -3 21 5 13 5 -5 8 -16 6 -23z m-339 8
c-2 -1 -13 -9 -24 -17 -19 -14 -19 -14 -6 3 7 9 18 17 24 17 6 0 8 -1 6 -3z
m305 -25 c3 -5 -1 -9 -9 -9 -8 0 -12 4 -9 9 3 4 7 8 9 8 2 0 6 -4 9 -8z m-170
-17 c6 -18 -29 -41 -39 -25 -4 6 -3 10 2 9 22 -4 32 2 27 16 -4 8 -4 15 -1 15
3 0 7 -7 11 -15z m143 -27 c-3 -8 -6 -5 -6 6 -1 11 2 17 5 13 3 -3 4 -12 1
-19z m-79 -13 c-3 -3 -9 2 -12 12 -6 14 -5 15 5 6 7 -7 10 -15 7 -18z m89 -40
c0 -8 -4 -15 -9 -15 -10 0 -11 14 -1 23 9 10 10 9 10 -8z m40 9 c-3 -3 -12 -4
-19 -1 -8 3 -5 6 6 6 11 1 17 -2 13 -5z m-86 -57 c-10 -9 -11 -8 -5 6 3 10 9
15 12 12 3 -3 0 -11 -7 -18z m-5 -52 c-4 -25 -20 -35 -36 -24 -12 8 -11 9 5 7
11 -2 20 3 21 10 2 18 4 22 8 22 2 0 3 -7 2 -15z m51 0 c0 -8 -4 -12 -9 -9 -5
3 -6 10 -3 15 9 13 12 11 12 -6z m43 3 c0 -4 -4 -8 -9 -8 -6 0 -12 4 -15 8 -3
5 1 9 9 9 8 0 15 -4 15 -9z m-125 -56 c-3 -3 -11 0 -18 7 -9 10 -8 11 6 5 10
-3 15 -9 12 -12z m225 -2 c0 -5 -5 -10 -11 -10 -5 0 -7 5 -4 10 3 6 8 10 11
10 2 0 4 -4 4 -10z m-165 -40 c-27 -12 -43 -12 -25 0 8 5 22 9 30 9 10 0 8 -3
-5 -9z m200 -19 c13 -27 13 -29 -3 -27 -9 2 -17 8 -17 14 0 6 -3 14 -7 18 -11
10 -10 24 2 24 5 0 16 -13 25 -29z m-55 5 c0 -2 -8 -10 -17 -17 -16 -13 -17
-12 -4 4 13 16 21 21 21 13z m16 -36 c0 -12 -4 -16 -9 -11 -5 5 -6 14 -3 20
10 15 12 14 12 -9z m44 -40 c-13 -25 -13 -33 2 -24 7 5 8 3 3 -5 -13 -22 -28
4 -16 27 6 10 7 23 3 27 -4 5 -1 5 6 1 8 -5 9 -13 2 -26z m-155 8 c5 4 5 1 1
-6 -6 -10 -11 -10 -22 -1 -8 6 -14 14 -14 16 0 3 6 0 13 -6 8 -6 18 -7 22 -3z
m-30 -29 c-4 -5 -12 -9 -18 -8 -9 0 -8 2 1 6 6 2 9 10 6 15 -4 7 -2 8 5 4 6
-4 9 -12 6 -17z"/>
<path d="M5489 3175 c-34 -19 -73 -79 -101 -157 -18 -53 -22 -84 -22 -198 0
-114 4 -145 22 -198 38 -107 93 -172 147 -172 54 0 109 65 147 172 18 53 22
84 22 198 0 114 -4 145 -22 198 -50 142 -119 197 -193 157z"/>
<path d="M4815 2840 c-3 -5 -1 -10 4 -10 6 0 11 5 11 10 0 6 -2 10 -4 10 -3 0
-8 -4 -11 -10z"/>
<path d="M3846 2833 c-35 -35 84 -74 247 -81 103 -4 117 -3 117 12 0 13 -13
16 -79 16 -86 0 -205 21 -250 45 -16 8 -31 11 -35 8z"/>
<path d="M3255 2669 c-4 -6 -5 -11 -4 -12 2 -1 30 -15 62 -31 86 -43 151 -106
189 -184 32 -66 33 -69 32 -199 0 -121 4 -150 20 -124 3 5 10 40 16 78 26 189
-61 362 -227 451 -66 35 -78 38 -88 21z"/>
<path d="M4105 2637 c-44 -15 -91 -21 -175 -22 -73 -2 -116 -7 -118 -14 -2 -6
5 -14 15 -18 10 -3 29 -17 42 -30 48 -47 123 -42 176 11 18 19 52 38 79 46 26
7 49 17 52 22 14 22 -15 24 -71 5z"/>
<path d="M3214 2389 c3 -19 8 -52 11 -74 16 -100 133 -405 156 -405 19 0 18
22 -2 61 -39 78 -90 219 -117 331 -16 62 -34 114 -41 116 -9 3 -11 -5 -7 -29z"/>
<path d="M6550 2367 c0 -7 8 -17 18 -23 9 -5 34 -20 54 -32 60 -37 54 -6 -7
33 -62 39 -65 40 -65 22z"/>
<path d="M6200 2333 c-139 -50 -275 -189 -365 -371 -60 -124 -95 -291 -96
-458 0 -150 24 -282 44 -247 3 5 -1 42 -9 83 -45 254 24 563 170 757 110 146
228 221 363 230 88 6 211 -14 289 -47 25 -11 53 -20 62 -20 35 0 -13 29 -93
56 -102 35 -292 44 -365 17z"/>
<path d="M1372 2140 c-690 -93 -1256 -171 -1260 -174 -3 -3 -2 -9 1 -12 4 -4
267 28 584 70 318 42 882 117 1253 167 740 98 720 95 720 109 0 6 -10 10 -22
9 -13 -1 -587 -77 -1276 -169z"/>
<path d="M5540 2295 c0 -8 10 -81 22 -163 36 -243 31 -440 -21 -782 -53 -354
-66 -527 -51 -713 12 -164 21 -212 38 -212 16 0 16 -2 2 111 -26 201 -5 547
50 864 40 224 50 463 27 637 -12 91 -8 155 6 102 12 -41 28 -272 25 -350 -2
-45 1 -74 7 -74 17 0 10 337 -10 450 -19 111 -29 137 -49 129 -8 -3 -17 -1
-21 5 -9 16 -25 13 -25 -4z m57 -87 c-3 -8 -6 -5 -6 6 -1 11 2 17 5 13 3 -3 4
-12 1 -19z"/>
<path d="M2731 2278 c0 -16 58 -63 66 -54 7 7 -46 66 -59 66 -4 0 -8 -6 -7
-12z"/>
<path d="M2125 2194 c-291 -40 -858 -118 -1260 -173 -472 -64 -741 -105 -761
-115 -39 -20 -48 -31 -63 -78 -12 -38 -11 -40 133 -323 130 -255 185 -345 213
-345 16 0 60 -54 67 -82 3 -16 13 -28 21 -28 8 0 15 -4 15 -10 0 -5 -4 -10
-10 -10 -5 0 -12 -23 -16 -50 -9 -71 -26 -75 -23 -6 3 74 -14 76 -24 2 -9 -61
-3 -78 30 -82 10 -1 67 -12 127 -24 59 -12 115 -19 122 -16 9 3 14 -1 14 -13
0 -10 7 -24 16 -32 25 -20 44 -65 43 -101 -1 -30 -3 -28 -31 35 -17 37 -35 67
-39 67 -14 0 -11 -16 16 -75 l24 -56 -23 -9 c-13 -5 -41 -12 -62 -15 -83 -14
-83 -14 -34 -58 25 -22 37 -34 27 -27 -12 9 -21 10 -28 3 -16 -16 55 -57 86
-49 18 5 25 2 25 -8 0 -16 -1 -16 209 -53 144 -25 164 -30 172 -49 4 -12 5
-32 1 -45 -6 -23 -6 -23 -12 6 -8 46 -25 31 -28 -26 -2 -34 1 -55 10 -60 7 -4
10 -10 7 -13 -3 -3 -117 6 -253 20 -136 14 -250 23 -253 20 -13 -13 11 -19
114 -30 68 -7 107 -16 106 -23 -6 -29 35 -42 191 -58 87 -9 169 -14 182 -11
22 6 24 3 24 -28 0 -22 6 -38 16 -44 20 -11 10 -32 -15 -32 -13 0 -20 10 -25
30 -3 17 -11 30 -17 30 -8 0 -9 -12 -4 -37 4 -21 7 -42 8 -48 1 -6 -66 -9
-190 -6 -127 2 -193 0 -193 -7 0 -6 29 -14 64 -17 41 -5 67 -12 70 -21 5 -12
51 -14 263 -14 162 1 262 5 270 11 7 6 18 7 25 2 21 -13 219 -13 211 1 -5 8
-3 8 8 -1 18 -14 302 -16 293 -1 -3 5 -15 7 -26 5 -11 -3 -17 -3 -14 0 3 4 1
12 -5 19 -8 9 -6 11 9 7 13 -3 25 3 36 18 9 13 16 18 16 12 0 -6 -7 -16 -15
-23 -14 -12 -14 -15 1 -31 14 -16 20 -17 32 -6 13 9 14 9 8 0 -5 -10 11 -13
69 -13 43 0 74 4 71 9 -6 10 12 9 29 0 20 -12 729 -7 744 5 8 6 12 6 9 1 -8
-13 131 -14 151 -1 9 6 12 5 8 -1 -4 -6 8 -10 27 -11 l33 -1 -45 79 c-39 69
-47 78 -60 68 -11 -9 -14 -10 -9 -1 9 14 -26 36 -38 25 -5 -4 -5 -1 -1 6 4 7
11 10 15 8 4 -3 13 -1 20 3 10 6 3 16 -23 36 -20 15 -36 33 -36 41 0 7 36 67
81 134 l81 121 -36 39 c-20 22 -36 48 -36 58 0 62 131 237 226 303 24 16 44
35 44 40 0 6 -49 115 -109 243 -59 127 -179 383 -266 569 -130 277 -162 336
-176 332 -10 -3 -19 1 -23 10 -7 19 -26 20 -26 0 0 -8 -4 -15 -10 -15 -5 0
-10 3 -10 8 1 13 27 42 38 42 6 0 14 5 17 10 8 13 -95 109 -115 109 -8 -1
-253 -34 -545 -75z m644 -148 c0 -7 -2 -6 -6 2 -2 6 -8 10 -12 8 -4 -3 -8 1
-8 9 0 11 4 12 14 4 7 -6 13 -17 12 -23z m20 20 c9 -11 9 -16 -1 -22 -7 -4
-10 -4 -6 1 4 4 3 14 -3 22 -6 7 -9 13 -6 13 2 0 10 -6 16 -14z m-99 -40 c0
-2 -8 -10 -17 -17 -16 -13 -17 -12 -4 4 13 16 21 21 21 13z m118 -92 c-3 -14
-5 -12 -10 9 -3 19 -2 25 4 19 6 -6 8 -18 6 -28z m-130 -59 c-3 -3 -9 2 -12
12 -6 14 -5 15 5 6 7 -7 10 -15 7 -18z m-29 1 c8 -10 9 -16 1 -21 -6 -4 -9 -1
-8 5 2 7 -5 14 -15 15 -27 5 -34 15 -10 15 11 0 26 -6 32 -14z m215 -24 c2 -4
-5 -9 -17 -9 -17 -2 -19 0 -7 7 18 12 18 12 24 2z m-189 -22 c3 -6 -1 -7 -9
-4 -18 7 -21 14 -7 14 6 0 13 -4 16 -10z m150 -10 c3 -5 -4 -6 -15 -3 -11 3
-22 9 -25 13 -3 5 4 6 15 3 11 -3 22 -9 25 -13z m35 6 c0 -3 -4 -8 -10 -11 -5
-3 -10 -1 -10 4 0 6 5 11 10 11 6 0 10 -2 10 -4z m-260 -10 c0 -3 -4 -8 -10
-11 -5 -3 -10 -1 -10 4 0 6 5 11 10 11 6 0 10 -2 10 -4z m144 -23 c4 -11 1
-11 -14 -3 -24 13 -25 17 -5 17 8 0 16 -6 19 -14z m-150 -15 c-2 -4 -14 -5
-26 -3 -32 7 -32 13 1 11 16 0 27 -4 25 -8z m151 -17 c3 -5 2 -12 -3 -15 -5
-3 -9 1 -9 9 0 17 3 19 12 6z m-144 -32 c-5 -13 -10 -19 -10 -12 -1 15 10 45
15 40 3 -2 0 -15 -5 -28z m112 16 c-3 -9 -8 -14 -10 -11 -3 3 -2 9 2 15 9 16
15 13 8 -4z m247 -1 c0 -2 -12 -4 -26 -4 -14 0 -23 4 -20 9 6 8 46 4 46 -5z
m-155 -3 c3 -5 0 -13 -6 -17 -7 -4 -9 -3 -5 4 3 6 -2 13 -11 15 -16 4 -16 5
-1 6 9 0 19 -3 23 -8z m-65 -31 c0 -5 -7 -7 -15 -4 -8 4 -15 8 -15 10 0 2 7 4
15 4 8 0 15 -4 15 -10z m-106 -38 c3 -5 -1 -9 -9 -9 -8 0 -12 4 -9 9 3 4 7 8
9 8 2 0 6 -4 9 -8z m-161 -36 c6 -15 -17 -16 -30 -1 -4 4 -2 5 5 1 6 -4 12 -2
12 3 0 15 7 14 13 -3z m507 0 c0 -2 -7 -7 -16 -10 -8 -3 -12 -2 -9 4 6 10 25
14 25 6z m-405 -25 c3 -5 2 -12 -3 -15 -5 -3 -9 1 -9 9 0 17 3 19 12 6z m368
-16 c-3 -9 -8 -14 -10 -11 -3 3 -2 9 2 15 9 16 15 13 8 -4z m-503 -31 c0 -2
-9 0 -20 6 -11 6 -20 13 -20 16 0 2 9 0 20 -6 11 -6 20 -13 20 -16z m356 0 c1
-9 0 -13 -4 -10 -3 4 -7 14 -8 22 -1 9 0 13 4 10 3 -4 7 -14 8 -22z m-216 -9
c0 -2 -9 -3 -19 -2 -11 0 -18 5 -15 9 4 6 34 0 34 -7z m73 -1 c9 -4 17 -14 17
-23 0 -10 -3 -12 -8 -5 -4 5 -18 18 -32 28 -14 10 -18 15 -10 12 8 -3 23 -9
33 -12z m264 9 c-4 -3 1 -12 11 -20 15 -11 13 -12 -11 -1 -20 8 -24 14 -15 20
16 9 24 10 15 1z m-539 -34 c-3 -8 -7 -3 -11 10 -4 17 -3 21 5 13 5 -5 8 -16
6 -23z m127 21 c-3 -5 -12 -10 -18 -10 -7 0 -6 4 3 10 19 12 23 12 15 0z m-80
-10 c-28 -12 -37 -12 -30 0 3 6 16 10 28 9 21 0 21 -1 2 -9z m40 1 c3 -5 2
-12 -3 -15 -5 -3 -9 1 -9 9 0 17 3 19 12 6z m80 -10 c3 -5 1 -12 -5 -16 -5 -3
-10 1 -10 9 0 18 6 21 15 7z m304 -36 c16 -20 16 -20 -5 -2 -23 19 -35 14 -28
-11 4 -12 2 -11 -7 2 -9 15 -9 21 -1 24 7 2 12 11 13 20 0 14 2 14 6 2 3 -8
13 -24 22 -35z m155 37 c3 -5 -1 -9 -9 -9 -8 0 -12 4 -9 9 3 4 7 8 9 8 2 0 6
-4 9 -8z m-639 -22 c17 -18 17 -20 2 -14 -9 3 -17 10 -17 16 0 5 -5 6 -12 2
-7 -4 -8 -3 -4 4 9 16 10 15 31 -8z m418 -28 c-6 -13 -8 -13 -14 4 -5 11 -8
13 -8 5 -1 -8 -4 -12 -7 -8 -10 10 6 26 21 21 8 -3 11 -12 8 -22z m-353 8 c0
-5 -5 -10 -11 -10 -5 0 -7 5 -4 10 3 6 8 10 11 10 2 0 4 -4 4 -10z m30 -10 c0
-5 -2 -10 -4 -10 -3 0 -8 5 -11 10 -3 6 -1 10 4 10 6 0 11 -4 11 -10z m47 -10
c-2 -11 -6 -22 -9 -26 -4 -3 -5 2 -3 13 2 10 4 21 4 26 1 4 3 7 6 7 3 0 4 -9
2 -20z m218 11 c3 -5 2 -12 -3 -15 -5 -3 -9 1 -9 9 0 17 3 19 12 6z m325 6 c0
-2 -10 -12 -22 -23 l-23 -19 19 23 c18 21 26 27 26 19z m-450 -24 c0 -3 -6 -3
-14 0 -7 3 -20 0 -27 -6 -11 -10 -11 -9 0 5 11 15 41 15 41 1z m-252 -13 c-7
-11 -15 -15 -17 -9 -2 6 3 15 10 20 20 12 21 11 7 -11z m406 12 c3 -5 -1 -9
-9 -9 -8 0 -12 4 -9 9 3 4 7 8 9 8 2 0 6 -4 9 -8z m-343 -25 c-10 -9 -11 -8
-5 6 3 10 9 15 12 12 3 -3 0 -11 -7 -18z m559 19 c0 -3 -4 -8 -10 -11 -5 -3
-10 -1 -10 4 0 6 5 11 10 11 6 0 10 -2 10 -4z m-635 -45 c-6 -5 -25 10 -25 20
0 5 6 4 14 -3 8 -7 12 -15 11 -17z m198 9 c-3 -12 0 -20 6 -20 7 0 9 5 5 12
-4 7 -3 8 5 4 6 -4 18 -3 25 3 10 9 17 7 27 -6 13 -16 12 -17 -2 -5 -15 11
-20 8 -39 -23 -12 -19 -26 -35 -31 -35 -5 0 -9 -8 -10 -17 0 -13 -2 -14 -6 -4
-3 8 3 20 13 28 17 13 17 15 1 42 -13 22 -14 30 -5 34 7 3 14 6 15 6 0 1 -1
-8 -4 -19z m235 -5 c-3 -3 -9 2 -12 12 -6 14 -5 15 5 6 7 -7 10 -15 7 -18z
m32 4 c0 -6 -4 -7 -10 -4 -5 3 -10 11 -10 16 0 6 5 7 10 4 6 -3 10 -11 10 -16z
m150 5 c0 -8 -19 -13 -24 -6 -3 5 1 9 9 9 8 0 15 -2 15 -3z m-236 -20 c3 -8 2
-12 -4 -9 -6 3 -10 10 -10 16 0 14 7 11 14 -7z m143 10 c-3 -3 -12 -4 -19 -1
-8 3 -5 6 6 6 11 1 17 -2 13 -5z m-381 -16 c4 -7 4 -10 -1 -6 -4 4 -15 2 -24
-5 -14 -11 -14 -10 -2 6 16 20 18 21 27 5z m513 -21 c0 -9 -2 -8 -6 1 -2 6
-10 9 -15 6 -7 -4 -8 -2 -4 5 9 13 26 5 25 -12z m-719 -9 c-12 -5 -25 -6 -28
-3 -3 3 0 5 7 5 7 0 10 4 7 9 -4 5 4 7 16 3 l22 -5 -24 -9z m325 12 c-3 -5 -1
-10 6 -10 8 0 8 -4 1 -12 -5 -7 -12 -22 -15 -33 -3 -11 -4 -2 -2 20 4 48 4 45
11 45 3 0 2 -4 -1 -10z m475 0 c11 -8 7 -9 -15 -4 -37 8 -45 14 -19 14 10 0
26 -5 34 -10z m-656 -9 c4 -5 -3 -7 -14 -4 -23 6 -26 13 -6 13 8 0 17 -4 20
-9z m316 5 c0 -2 -8 -10 -17 -17 -16 -13 -17 -12 -4 4 13 16 21 21 21 13z m95
-16 c3 -6 -1 -7 -9 -4 -18 7 -21 14 -7 14 6 0 13 -4 16 -10z m188 -15 c-3 -9
-8 -14 -10 -11 -3 3 -2 9 2 15 9 16 15 13 8 -4z m-761 -2 c-6 -2 -9 -10 -6
-15 4 -7 2 -8 -5 -4 -13 9 -5 26 12 25 9 0 8 -2 -1 -6z m188 -21 c3 -2 -5 -1
-18 3 -23 7 -28 -11 -7 -28 6 -5 3 -7 -6 -4 -9 3 -22 0 -29 -6 -10 -9 -11 -9
-5 2 6 11 4 13 -9 8 -10 -4 -15 -3 -11 3 4 6 14 9 23 8 12 -2 17 4 16 19 -1
20 1 21 20 11 11 -6 23 -13 26 -16z m447 6 c-3 -8 -6 -5 -6 6 -1 11 2 17 5 13
3 -3 4 -12 1 -19z m-601 -33 c-1 -8 -6 -18 -11 -22 -4 -4 -5 -2 -1 5 5 8 1 12
-11 12 -15 0 -16 2 -3 10 21 14 29 12 26 -5z m352 -8 c8 -10 6 -13 -7 -13 -11
0 -17 6 -14 13 3 7 6 13 8 13 1 0 7 -6 13 -13z m392 1 c0 -4 -4 -8 -9 -8 -6 0
-12 4 -15 8 -3 5 1 9 9 9 8 0 15 -4 15 -9z m-437 -13 c-3 -9 -8 -14 -10 -11
-3 3 -2 9 2 15 9 16 15 13 8 -4z m361 -11 c3 -8 2 -12 -4 -9 -6 3 -10 10 -10
16 0 14 7 11 14 -7z m96 6 c0 -5 -8 -10 -17 -10 -15 0 -16 2 -3 10 19 12 20
12 20 0z m47 4 c-3 -3 -12 -4 -19 -1 -8 3 -5 6 6 6 11 1 17 -2 13 -5z m-222
-14 c3 -6 -1 -7 -9 -4 -18 7 -21 14 -7 14 6 0 13 -4 16 -10z m-239 -29 c-4 -6
-13 -11 -19 -11 -8 0 -7 3 2 9 8 5 10 14 6 22 -6 11 -5 11 5 2 7 -6 9 -16 6
-22z m194 19 c0 -5 -2 -10 -4 -10 -3 0 -8 5 -11 10 -3 6 -1 10 4 10 6 0 11 -4
11 -10z m280 6 c0 -2 -7 -9 -15 -16 -13 -11 -14 -10 -9 4 5 14 24 23 24 12z
m-630 -10 c0 -2 -7 -7 -16 -10 -8 -3 -12 -2 -9 4 6 10 25 14 25 6z m243 -8
c-2 -5 -10 -8 -18 -8 -8 0 -16 3 -18 8 -3 4 5 7 18 7 13 0 21 -3 18 -7z m142
3 c3 -5 2 -12 -3 -15 -5 -3 -9 1 -9 9 0 17 3 19 12 6z m185 -6 c-7 -9 -15 -13
-19 -10 -3 3 1 10 9 15 21 14 24 12 10 -5z m-495 -5 c-3 -5 -1 -10 6 -10 7 0
10 -3 6 -6 -9 -9 -28 6 -22 17 4 5 8 9 11 9 3 0 2 -4 -1 -10z m-32 -13 c-3 -5
1 -13 8 -18 10 -6 8 -8 -6 -7 -22 2 -30 35 -8 35 7 0 9 -5 6 -10z m437 9 c0
-2 -9 -6 -20 -9 -11 -3 -18 -1 -14 4 5 9 34 13 34 5z m-500 -10 c0 -3 -4 -8
-10 -11 -5 -3 -10 -1 -10 4 0 6 5 11 10 11 6 0 10 -2 10 -4z m254 -5 c3 -5 -1
-11 -9 -14 -9 -4 -12 -1 -8 9 6 16 10 17 17 5z m-451 -16 c-3 -9 -8 -14 -10
-11 -3 3 -2 9 2 15 9 16 15 13 8 -4z m217 12 c0 -2 -10 -12 -22 -23 l-23 -19
19 23 c18 21 26 27 26 19z m554 -5 c2 -4 -4 -8 -14 -8 -10 0 -16 4 -14 8 3 4
9 8 14 8 5 0 11 -4 14 -8z m48 -14 c-9 -9 -8 -17 6 -32 17 -21 17 -21 -5 -2
-18 15 -20 21 -10 37 6 10 13 16 16 13 3 -2 -1 -10 -7 -16z m-469 -5 c-3 -7
-6 -13 -8 -13 -2 0 -5 6 -8 13 -3 8 1 14 8 14 7 0 11 -6 8 -14z m247 9 c0 -5
-7 -9 -15 -9 -8 0 -12 4 -9 9 3 4 9 8 15 8 5 0 9 -4 9 -8z m80 2 c0 -8 -19
-13 -24 -6 -3 5 1 9 9 9 8 0 15 -2 15 -3z m275 -4 c3 -6 -1 -7 -9 -4 -18 7
-21 14 -7 14 6 0 13 -4 16 -10z m-1029 -39 c-4 -6 -13 -11 -19 -10 -9 0 -9 2
0 6 10 3 10 10 2 26 -11 21 -10 21 6 5 10 -9 14 -21 11 -27z m341 14 c0 -8 -4
-12 -9 -9 -5 3 -6 10 -3 15 9 13 12 11 12 -6z m69 -16 c3 -6 -5 -4 -18 5 -14
9 -28 13 -33 9 -4 -5 -5 -2 -1 5 8 13 39 2 52 -19z m144 3 c0 -8 -1 -13 -3
-11 -1 2 -9 12 -16 22 -12 15 -12 17 3 11 9 -3 16 -13 16 -22z m375 18 c3 -6
-1 -7 -9 -4 -18 7 -21 14 -7 14 6 0 13 -4 16 -10z m-765 -17 c0 -15 2 -16 10
-3 6 9 10 10 10 3 0 -18 -18 -25 -37 -14 -11 6 -13 11 -5 11 7 0 10 5 7 10 -3
6 -1 10 4 10 6 0 11 -8 11 -17z m140 9 c0 -4 -10 -13 -22 -21 -23 -14 -23 -14
-4 8 20 22 26 25 26 13z m184 0 c3 -5 -1 -9 -9 -9 -8 0 -15 4 -15 9 0 4 4 8 9
8 6 0 12 -4 15 -8z m-434 -6 c0 -3 -4 -8 -10 -11 -5 -3 -10 -1 -10 4 0 6 5 11
10 11 6 0 10 -2 10 -4z m397 -2 c-3 -3 -12 -4 -19 -1 -8 3 -5 6 6 6 11 1 17
-2 13 -5z m278 -14 c3 -6 -1 -7 -9 -4 -18 7 -21 14 -7 14 6 0 13 -4 16 -10z
m152 -5 c0 -8 -4 -12 -9 -9 -5 3 -6 10 -3 15 9 13 12 11 12 -6z m-820 -10 c0
-8 -4 -12 -9 -9 -5 3 -6 10 -3 15 9 13 12 11 12 -6z m38 -14 c-6 -5 -25 10
-25 20 0 5 6 4 14 -3 8 -7 12 -15 11 -17z m115 25 c0 -2 -8 -10 -17 -17 -16
-13 -17 -12 -4 4 13 16 21 21 21 13z m769 1 c-2 -2 -11 -8 -20 -15 -12 -9 -16
-9 -16 1 0 7 9 14 20 14 11 1 18 1 16 0z m-717 -42 c-8 -16 -9 -16 -15 -1 -4
10 -3 15 3 11 6 -3 10 -1 10 6 0 7 3 10 6 6 3 -3 2 -13 -4 -22z m248 4 c0 -5
-4 -9 -8 -9 -5 0 -9 7 -9 15 0 8 4 12 9 9 4 -3 8 -9 8 -15z m-466 3 c3 -5 -1
-9 -9 -9 -8 0 -12 4 -9 9 3 4 7 8 9 8 2 0 6 -4 9 -8z m826 -7 c0 -2 -6 -5 -13
-8 -8 -3 -14 1 -14 8 0 7 6 11 14 8 7 -3 13 -6 13 -8z m-950 1 c0 -2 -8 -10
-17 -17 -16 -13 -17 -12 -4 4 13 16 21 21 21 13z m161 -13 c13 -16 12 -17 -3
-4 -17 13 -22 21 -14 21 2 0 10 -8 17 -17z m344 5 c5 4 5 1 1 -6 -6 -10 -11
-10 -22 -1 -8 6 -14 14 -14 16 0 3 6 0 13 -6 8 -6 18 -7 22 -3z m-480 -19 c-4
-5 -12 -9 -18 -8 -9 0 -8 2 1 6 6 2 9 10 6 15 -4 7 -2 8 5 4 6 -4 9 -12 6 -17z
m350 11 c-3 -5 -12 -10 -18 -10 -7 0 -6 4 3 10 19 12 23 12 15 0z m275 -6 c0
-8 -5 -12 -10 -9 -6 4 -8 11 -5 16 9 14 15 11 15 -7z m57 9 c-10 -3 -14 -10
-11 -16 4 -7 3 -9 -1 -4 -5 4 -18 -1 -29 -10 -15 -14 -18 -14 -8 -2 6 9 8 20
4 24 -4 5 -1 5 6 1 6 -4 12 -2 12 3 0 6 10 10 23 10 17 -1 18 -2 4 -6z m-571
-32 c-9 -10 -13 -21 -9 -26 5 -4 3 -5 -4 -1 -13 7 -6 36 9 36 5 0 6 5 2 12 -5
7 -3 8 5 4 9 -6 9 -12 -3 -25z m79 19 c3 -5 1 -10 -4 -10 -6 0 -11 5 -11 10 0
6 2 10 4 10 3 0 8 -4 11 -10z m891 -5 c-1 -8 -5 -17 -8 -21 -5 -4 -4 16 1 34
3 9 9 -1 7 -13z m45 -8 c-6 -8 -8 -16 -5 -19 3 -3 1 -9 -4 -12 -6 -3 -9 0 -8
6 2 16 15 38 23 38 3 0 0 -6 -6 -13z m-887 -5 c3 -5 -1 -9 -9 -9 -8 0 -15 4
-15 9 0 4 4 8 9 8 6 0 12 -4 15 -8z m187 -10 c-7 -2 -18 1 -23 6 -8 8 -4 9 13
5 13 -4 18 -8 10 -11z m534 9 c3 -5 1 -12 -5 -16 -5 -3 -10 1 -10 9 0 18 6 21
15 7z m60 -1 c3 -6 -1 -7 -9 -4 -18 7 -21 14 -7 14 6 0 13 -4 16 -10z m30 0
c3 -5 1 -10 -4 -10 -6 0 -11 5 -11 10 0 6 2 10 4 10 3 0 8 -4 11 -10z m-388
-22 c-3 -8 -6 -5 -6 6 -1 11 2 17 5 13 3 -3 4 -12 1 -19z m203 12 c0 -5 -5
-10 -11 -10 -5 0 -7 5 -4 10 3 6 8 10 11 10 2 0 4 -4 4 -10z m-670 -16 c0 -2
-11 -3 -24 -2 -14 1 -23 5 -20 9 4 7 44 0 44 -7z m382 -2 c-7 -2 -9 -9 -5 -15
3 -7 2 -8 -2 -4 -16 14 -14 36 3 29 10 -4 12 -7 4 -10z m404 -8 c-13 -9 -15
-14 -6 -14 7 0 11 -3 7 -6 -10 -10 -26 6 -21 21 4 8 10 12 15 9 5 -3 9 0 9 7
0 7 3 9 7 5 5 -4 -1 -14 -11 -22z m-1066 12 c0 -11 -19 -15 -25 -6 -3 5 1 10
9 10 9 0 16 -2 16 -4z m133 -11 c-3 -9 -8 -14 -10 -11 -3 3 -2 9 2 15 9 16 15
13 8 -4z m184 9 c-3 -3 -12 -4 -19 -1 -8 3 -5 6 6 6 11 1 17 -2 13 -5z m513
-19 c7 -9 10 -18 6 -22 -3 -3 -6 -1 -6 6 0 6 -10 16 -22 21 -16 6 -18 9 -7 9
9 1 22 -6 29 -14z m-770 -10 c-10 -12 -10 -15 0 -15 8 0 11 -3 7 -6 -3 -3 -11
-3 -17 1 -8 5 -8 11 1 21 6 8 14 14 16 14 3 0 0 -7 -7 -15z m140 5 c0 -5 -5
-10 -11 -10 -5 0 -7 5 -4 10 3 6 8 10 11 10 2 0 4 -4 4 -10z m25 0 c-4 -6 6
-11 22 -11 18 -1 22 -3 10 -6 -24 -6 -50 4 -42 17 3 5 8 10 11 10 3 0 2 -4 -1
-10z m105 4 c0 -8 -19 -13 -24 -6 -3 5 1 9 9 9 8 0 15 -2 15 -3z m238 -12 c2
-7 -1 -12 -8 -12 -6 0 -9 4 -6 9 4 5 1 12 -4 14 -6 3 -5 4 2 3 6 -1 14 -8 16
-14z m336 10 c3 -5 -1 -9 -9 -9 -8 0 -15 4 -15 9 0 4 4 8 9 8 6 0 12 -4 15 -8z
m-789 -41 c-3 -6 -11 -11 -16 -11 -5 0 -4 6 3 14 14 16 24 13 13 -3z m671 -9
c-17 -16 -18 -16 -5 5 7 12 15 20 18 17 3 -2 -3 -12 -13 -22z m362 12 c-1 -5
-9 -9 -16 -10 -10 -2 -11 1 -1 12 12 14 24 13 17 -2z m-719 -8 c9 -11 9 -16 0
-22 -8 -4 -9 -3 -5 4 4 7 2 12 -3 12 -6 0 -11 5 -11 10 0 14 5 13 19 -4z m211
10 c0 -3 -4 -8 -10 -11 -5 -3 -10 -1 -10 4 0 6 5 11 10 11 6 0 10 -2 10 -4z
m35 -6 c-3 -5 -12 -10 -18 -10 -7 0 -6 4 3 10 19 12 23 12 15 0z m261 2 c-7
-12 33 -54 45 -47 5 4 9 1 9 -4 0 -14 -6 -14 -32 0 -18 10 -20 9 -15 -5 4 -11
3 -15 -4 -11 -5 4 -7 15 -4 26 4 11 3 19 -2 18 -20 -3 -25 2 -13 16 13 16 25
21 16 7z m-961 -12 c-3 -5 -12 -10 -18 -10 -7 0 -6 4 3 10 19 12 23 12 15 0z
m62 3 c-4 -3 -1 -13 6 -22 11 -14 10 -14 -5 -2 -21 15 -23 31 -6 31 6 0 8 -3
5 -7z m117 -19 c3 -8 2 -12 -4 -9 -6 3 -10 10 -10 16 0 14 7 11 14 -7z m151
-12 c-8 -8 -25 10 -19 20 4 6 9 5 15 -3 4 -7 6 -15 4 -17z m45 18 c0 -5 -5
-10 -11 -10 -5 0 -7 5 -4 10 3 6 8 10 11 10 2 0 4 -4 4 -10z m294 -9 c2 -3 -6
-6 -18 -6 -13 0 -23 5 -23 11 0 11 34 7 41 -5z m-719 0 c3 -5 0 -13 -6 -17 -7
-4 -9 -3 -5 4 3 5 0 13 -6 15 -9 4 -10 6 -1 6 6 1 14 -3 18 -8z m65 5 c0 -2
-8 -10 -17 -17 -16 -13 -17 -12 -4 4 13 16 21 21 21 13z m24 -5 c3 -5 -2 -15
-12 -22 -15 -12 -16 -12 -5 2 7 9 10 19 6 22 -3 4 -4 7 0 7 3 0 8 -4 11 -9z
m861 -11 c-3 -5 -1 -10 5 -10 6 0 8 -5 4 -11 -4 -8 -9 -7 -15 2 -7 12 -3 29 7
29 3 0 2 -4 -1 -10z m-327 -24 c-2 -21 -5 -23 -18 -13 -25 19 -26 20 -7 14 11
-4 17 -1 17 8 0 8 2 15 5 15 3 0 4 -11 3 -24z m206 12 c-3 -4 -11 -5 -19 -1
-21 7 -19 12 4 10 11 0 18 -5 15 -9z m92 -10 c4 -7 3 -10 -1 -5 -5 4 -18 -1
-29 -10 -21 -18 -21 -18 -2 5 22 26 23 26 32 10z m-651 -16 c-3 -3 -11 0 -18
7 -9 10 -8 11 6 5 10 -3 15 -9 12 -12z m269 10 c2 -4 -2 -15 -9 -25 -8 -12
-15 -14 -20 -8 -3 6 -2 11 4 11 6 0 8 7 5 15 -6 15 11 21 20 7z m182 -4 c4 -7
4 -10 -1 -6 -4 4 -14 1 -22 -7 -8 -8 -19 -15 -25 -15 -6 0 0 9 13 20 29 23 26
23 35 8z m-741 -21 c0 -7 9 -11 19 -9 15 3 16 1 5 -11 -12 -13 -15 -13 -24 2
-11 19 -16 46 -7 36 4 -4 7 -12 7 -18z m215 8 c0 -2 -9 -3 -19 -2 -11 0 -18 5
-15 9 4 6 34 0 34 -7z m55 -13 c-3 -3 -11 0 -18 7 -9 10 -8 11 6 5 10 -3 15
-9 12 -12z m159 2 c3 -8 2 -12 -4 -9 -6 3 -10 10 -10 16 0 14 7 11 14 -7z
m166 12 c0 -2 -7 -7 -16 -10 -8 -3 -12 -2 -9 4 6 10 25 14 25 6z m194 -12 c3
-8 2 -12 -4 -9 -6 3 -10 10 -10 16 0 14 7 11 14 -7z m-634 -9 c-7 -8 -8 -15
-3 -15 5 0 10 -7 10 -15 0 -13 -3 -13 -19 1 -17 16 -17 18 0 30 23 18 27 17
12 -1z m590 11 c0 -2 -8 -10 -17 -17 -16 -13 -17 -12 -4 4 13 16 21 21 21 13z
m287 -21 c0 -8 -9 -15 -19 -15 -10 0 -18 5 -18 11 0 5 4 8 9 4 5 -3 12 -1 16
5 9 14 12 13 12 -5z m73 0 c11 -13 10 -14 -4 -9 -9 3 -16 10 -16 15 0 13 6 11
20 -6z m-1041 -11 c4 3 8 -1 8 -9 0 -10 -4 -12 -12 -5 -7 5 -15 7 -19 3 -4 -4
-4 1 0 12 5 11 9 14 12 7 2 -7 7 -10 11 -8z m624 1 c-3 -9 -8 -14 -10 -11 -3
3 -2 9 2 15 9 16 15 13 8 -4z m119 -10 c-8 -16 -9 -16 -15 -1 -4 10 -3 15 3
11 6 -3 10 -1 10 6 0 7 3 10 6 6 3 -3 2 -13 -4 -22z m-522 0 c0 -2 -7 -5 -15
-9 -9 -3 -15 0 -15 9 0 9 6 12 15 9 8 -4 15 -7 15 -9z m51 -2 c13 -16 12 -17
-3 -4 -17 13 -22 21 -14 21 2 0 10 -8 17 -17z m152 0 c-3 -7 -6 -13 -8 -13 -2
0 -5 6 -8 13 -3 8 1 14 8 14 7 0 11 -6 8 -14z m107 -3 c8 -15 8 -18 -3 -14 -8
3 -14 11 -14 19 0 20 4 19 17 -5z m390 10 c0 -5 -5 -10 -11 -10 -5 0 -7 5 -4
10 3 6 8 10 11 10 2 0 4 -4 4 -10z m-875 -20 c3 -6 -1 -7 -9 -4 -18 7 -21 14
-7 14 6 0 13 -4 16 -10z m560 -9 c3 -8 3 -12 -1 -8 -4 4 -13 2 -20 -4 -8 -7
-14 -6 -20 2 -5 8 -3 9 6 4 9 -6 12 -4 8 7 -4 8 0 15 8 15 7 0 16 -7 19 -16z
m456 2 c13 -16 12 -17 -3 -4 -10 7 -18 15 -18 17 0 8 8 3 21 -13z m-380 -6
c-6 -8 -8 -16 -5 -19 3 -3 1 -9 -4 -12 -6 -3 -9 0 -8 6 2 16 15 38 23 38 3 0
0 -6 -6 -13z m-558 -12 c-3 -9 -8 -14 -10 -11 -3 3 -2 9 2 15 9 16 15 13 8 -4z
m176 -7 c-5 -10 -11 -18 -12 -18 -2 0 -3 8 -3 18 0 10 6 19 13 19 8 0 9 -6 2
-19z m145 6 c3 -8 2 -12 -4 -9 -6 3 -10 10 -10 16 0 14 7 11 14 -7z m643 -6
c-3 -8 -6 -5 -6 6 -1 11 2 17 5 13 3 -3 4 -12 1 -19z m-377 2 c0 -5 -5 -10
-11 -10 -5 0 -7 5 -4 10 3 6 8 10 11 10 2 0 4 -4 4 -10z m-705 -10 c3 -5 -1
-10 -10 -10 -9 0 -13 5 -10 10 3 6 8 10 10 10 2 0 7 -4 10 -10z m-152 -23 c-4
-7 -8 -15 -8 -19 0 -3 -3 -9 -7 -13 -5 -6 -4 19 2 35 1 3 2 9 1 13 -1 5 3 6 9
2 6 -3 7 -12 3 -18z m552 14 c-3 -5 -1 -12 5 -16 5 -3 10 -1 10 6 0 7 3 10 6
6 3 -3 3 -11 -1 -17 -5 -8 -11 -8 -21 1 -12 10 -11 29 2 29 3 0 3 -4 -1 -9z
m559 -3 c-3 -5 -9 -6 -14 -3 -5 3 -11 1 -15 -5 -3 -5 -11 -10 -18 -10 -6 0 -3
6 7 13 21 15 48 18 40 5z m-604 -6 c0 -4 -9 -8 -19 -8 -11 0 -17 4 -15 8 7 10
34 10 34 0z m328 -6 c-7 -8 -15 -12 -17 -11 -5 6 10 25 20 25 5 0 4 -6 -3 -14z
m-95 -24 c15 -17 15 -18 -6 -19 -17 -2 -19 0 -7 7 10 7 11 10 3 10 -7 0 -13 5
-13 10 0 14 5 13 23 -8z m387 -2 c-6 -11 -13 -20 -16 -20 -2 0 0 9 6 20 6 11
13 20 16 20 2 0 0 -9 -6 -20z m75 10 c-3 -5 -11 -10 -16 -10 -6 0 -7 5 -4 10
3 6 11 10 16 10 6 0 7 -4 4 -10z m-220 -10 c3 -5 1 -10 -4 -10 -6 0 -11 5 -11
10 0 6 2 10 4 10 3 0 8 -4 11 -10z m-301 -16 c3 -8 2 -12 -4 -9 -6 3 -10 10
-10 16 0 14 7 11 14 -7z m127 -7 c-10 -9 -11 -8 -5 6 3 10 9 15 12 12 3 -3 0
-11 -7 -18z m-373 -13 c0 -17 -3 -22 -8 -13 -5 6 -6 18 -3 26 8 19 11 16 11
-13z m-460 2 c-10 -7 -14 -17 -10 -21 4 -5 1 -5 -7 0 -12 7 -11 10 4 22 24 17
36 17 13 -1z m182 0 c0 -2 -7 -7 -16 -10 -8 -3 -12 -2 -9 4 6 10 25 14 25 6z
m424 -11 c-4 -8 -10 -12 -15 -9 -11 6 -2 24 11 24 5 0 7 -7 4 -15z m81 -7 c-3
-12 -9 -26 -15 -32 -8 -8 -9 -6 -4 8 6 15 4 17 -7 11 -8 -5 -5 1 5 13 24 27
26 27 21 0z m161 10 c-2 -14 -8 -18 -28 -18 -6 0 -3 7 8 15 23 18 23 18 20 3z
m255 -11 c-10 -9 -11 -8 -5 6 3 10 9 15 12 12 3 -3 0 -11 -7 -18z m-711 3 c0
-5 -2 -10 -4 -10 -3 0 -8 5 -11 10 -3 6 -1 10 4 10 6 0 11 -4 11 -10z m-436
-8 c3 -5 -1 -9 -9 -9 -8 0 -12 4 -9 9 3 4 7 8 9 8 2 0 6 -4 9 -8z m426 -18 c0
-2 -9 0 -20 6 -11 6 -20 13 -20 16 0 2 9 0 20 -6 11 -6 20 -13 20 -16z m200
10 c0 -8 -19 -13 -24 -6 -3 5 1 9 9 9 8 0 15 -2 15 -3z m454 -10 c3 -8 2 -12
-4 -9 -6 3 -10 10 -10 16 0 14 7 11 14 -7z m-724 -17 c0 -7 -4 -6 -10 3 -8 12
-10 12 -10 1 0 -8 -3 -12 -6 -8 -9 9 6 28 17 22 5 -4 9 -12 9 -18z m165 5 c-3
-3 -11 0 -18 7 -9 10 -8 11 6 5 10 -3 15 -9 12 -12z m431 -7 c1 -8 -2 -13 -7
-9 -5 3 -9 12 -9 21 0 19 13 9 16 -12z m-190 -8 c-1 -6 -6 -18 -10 -26 -7 -11
-5 -13 7 -8 9 3 19 1 23 -5 4 -6 3 -8 -4 -4 -5 3 -12 1 -14 -5 -2 -6 -12 -1
-23 11 -14 16 -15 21 -5 18 10 -2 15 5 14 19 -1 13 2 20 6 18 5 -3 7 -11 6
-18z m-499 -2 c0 -8 -4 -12 -9 -9 -5 3 -6 10 -3 15 9 13 12 11 12 -6z m724 -2
c13 -16 12 -17 -3 -4 -17 13 -22 21 -14 21 2 0 10 -8 17 -17z m-987 -19 c3 -8
2 -12 -4 -9 -6 3 -10 10 -10 16 0 14 7 11 14 -7z m348 -3 c8 11 9 10 4 -3 -5
-16 5 -23 27 -19 5 1 6 -3 3 -8 -15 -24 -57 6 -55 39 1 9 3 8 6 -4 4 -15 7
-16 15 -5z m87 -21 c0 -10 -3 -8 -9 5 -12 27 -12 43 0 25 5 -8 9 -22 9 -30z
m-305 -10 c1 -16 -2 -30 -6 -30 -5 0 -8 3 -9 8 0 4 -2 15 -4 25 -2 9 1 17 6
17 6 0 7 6 3 13 -4 6 -4 9 1 5 5 -5 9 -21 9 -38z m486 36 c0 -2 -8 -10 -17
-17 -16 -13 -17 -12 -4 4 13 16 21 21 21 13z m425 -46 c-3 -6 -12 -10 -18 -10
-7 0 -6 4 3 10 12 7 12 12 2 22 -6 6 -12 17 -12 22 0 6 7 0 16 -12 8 -12 12
-27 9 -32z m85 40 c0 -5 4 -9 9 -7 11 3 15 -17 4 -20 -4 -2 -14 6 -21 17 -7
12 -8 20 -2 20 5 0 10 -4 10 -10z m-813 -20 c4 -12 3 -13 -5 -1 -5 7 -15 10
-21 7 -6 -4 -11 -2 -11 4 0 17 33 8 37 -10z m688 10 c3 -5 1 -10 -4 -10 -6 0
-11 5 -11 10 0 6 2 10 4 10 3 0 8 -4 11 -10z m-482 -15 c-3 -9 -8 -14 -10 -11
-3 3 -2 9 2 15 9 16 15 13 8 -4z m372 5 c3 -6 -1 -7 -9 -4 -18 7 -21 14 -7 14
6 0 13 -4 16 -10z m56 -13 c-10 -9 -11 -8 -5 6 3 10 9 15 12 12 3 -3 0 -11 -7
-18z m-860 -4 c13 -16 12 -17 -3 -4 -10 7 -18 15 -18 17 0 8 8 3 21 -13z m63
1 c3 -8 2 -12 -4 -9 -6 3 -10 10 -10 16 0 14 7 11 14 -7z m344 -9 c-3 -3 -9 2
-12 12 -6 14 -5 15 5 6 7 -7 10 -15 7 -18z m222 -11 c-1 -4 4 -11 12 -16 11
-8 10 -9 -1 -6 -8 2 -15 15 -17 29 -1 13 0 18 2 12 3 -7 5 -15 4 -19z m195 16
c-3 -5 -12 -10 -18 -10 -7 0 -6 4 3 10 19 12 23 12 15 0z m286 -7 c13 -16 12
-17 -3 -4 -17 13 -22 21 -14 21 2 0 10 -8 17 -17z m-1296 -3 c3 -6 -1 -7 -9
-4 -18 7 -21 14 -7 14 6 0 13 -4 16 -10z m169 -12 c-4 -6 2 -8 17 -4 21 6 22
6 6 -4 -20 -13 -30 -8 -33 15 -1 8 2 13 7 9 5 -3 6 -10 3 -16z m153 7 c0 -8
-3 -13 -5 -10 -3 3 -11 0 -19 -6 -18 -16 -16 -4 3 15 19 20 21 20 21 1z m208
-3 c-3 -3 -11 0 -18 7 -9 10 -8 11 6 5 10 -3 15 -9 12 -12z m128 3 c-3 -9 -8
-14 -10 -11 -3 3 -2 9 2 15 9 16 15 13 8 -4z m302 5 c-3 -5 -12 -10 -18 -10
-7 0 -6 4 3 10 19 12 23 12 15 0z m405 -5 c7 -9 8 -15 2 -15 -5 0 -12 7 -16
15 -3 8 -4 15 -2 15 2 0 9 -7 16 -15z m-1332 -20 c-3 -3 -9 2 -12 12 -6 14 -5
15 5 6 7 -7 10 -15 7 -18z m109 9 c-3 -3 -12 -4 -19 -1 -8 3 -5 6 6 6 11 1 17
-2 13 -5z m-47 -10 c0 -8 -19 -13 -24 -6 -3 5 1 9 9 9 8 0 15 -2 15 -3z m479
-3 c10 -7 7 -9 -12 -8 -14 1 -23 5 -20 10 6 9 15 9 32 -2z m221 -3 c0 -4 -4
-8 -9 -8 -6 0 -12 4 -15 8 -3 5 1 9 9 9 8 0 15 -4 15 -9z m107 6 c-3 -3 -12
-4 -19 -1 -8 3 -5 6 6 6 11 1 17 -2 13 -5z m172 -11 c-12 -15 -12 -16 6 -9 16
6 18 5 7 -5 -10 -11 -16 -10 -30 5 -9 11 -12 16 -5 12 6 -3 14 -2 18 4 3 5 9
10 12 10 3 0 -1 -8 -8 -17z m-919 3 c0 -3 -4 -8 -10 -11 -5 -3 -10 -1 -10 4 0
6 5 11 10 11 6 0 10 -2 10 -4z m200 -16 c0 -11 -2 -20 -4 -20 -2 0 -6 9 -9 20
-3 11 -1 20 4 20 5 0 9 -9 9 -20z m167 2 c0 -10 -6 -19 -13 -19 -9 0 -9 5 -1
19 7 10 13 18 14 18 1 0 1 -8 0 -18z m494 1 c13 -16 12 -17 -3 -4 -10 7 -18
15 -18 17 0 8 8 3 21 -13z m-533 -18 c-3 -3 -9 2 -12 12 -6 14 -5 15 5 6 7 -7
10 -15 7 -18z m259 10 c0 -8 -4 -15 -9 -15 -10 0 -11 14 -1 23 9 10 10 9 10
-8z m484 -8 c-10 -9 -11 -8 -5 6 3 10 9 15 12 12 3 -3 0 -11 -7 -18z m-1156 3
c-3 -5 -1 -10 6 -10 7 0 10 -3 6 -6 -9 -9 -28 6 -22 17 4 5 8 9 11 9 3 0 2 -4
-1 -10z m250 -17 c-5 -10 -7 -22 -6 -26 1 -5 -3 -6 -8 -3 -5 4 -5 16 2 30 13
28 24 27 12 -1z m340 17 c-12 -5 -14 -9 -6 -9 8 -1 12 -4 8 -7 -9 -9 -28 6
-22 17 4 5 14 9 23 8 14 0 13 -2 -3 -9z m-45 -15 c0 -2 -6 -5 -13 -8 -8 -3
-14 1 -14 8 0 7 6 11 14 8 7 -3 13 -6 13 -8z m158 -16 c-3 -8 -7 -3 -11 10 -4
17 -3 21 5 13 5 -5 8 -16 6 -23z m168 3 c-17 -16 -18 -16 -5 5 7 12 15 20 18
17 3 -2 -3 -12 -13 -22z m-138 -7 c-3 -3 -9 2 -12 12 -6 14 -5 15 5 6 7 -7 10
-15 7 -18z m107 5 c3 -5 0 -7 -8 -4 -8 3 -18 1 -22 -5 -3 -6 -1 -11 6 -11 7 0
10 -2 7 -5 -3 -3 -13 -3 -22 1 -15 6 -15 7 1 20 22 16 30 17 38 4z m241 -2 c4
-7 4 -10 -1 -6 -4 4 -15 2 -24 -5 -14 -11 -14 -10 -2 6 16 20 18 21 27 5z
m-921 -8 c3 -5 1 -10 -4 -10 -6 0 -11 5 -11 10 0 6 2 10 4 10 3 0 8 -4 11 -10z
m285 0 c0 -5 8 -7 18 -3 9 3 14 3 10 -1 -3 -4 -12 -8 -20 -10 -7 -1 -20 -6
-28 -11 -12 -7 -13 -6 -3 7 7 8 10 18 6 21 -3 4 -1 7 5 7 7 0 12 -4 12 -10z
m590 5 c0 -2 -6 -8 -13 -14 -10 -8 -14 -7 -14 2 0 8 6 14 14 14 7 0 13 -1 13
-2z m75 -16 c-4 -5 -12 -9 -18 -8 -9 0 -8 2 1 6 6 2 9 10 6 15 -4 7 -2 8 5 4
6 -4 9 -12 6 -17z m28 6 c4 -8 3 -16 -1 -19 -4 -3 -9 4 -9 15 -2 23 3 25 10 4z
m-998 -18 c6 -5 3 -7 -6 -4 -9 3 -22 0 -29 -6 -9 -8 -8 -5 1 10 7 12 16 19 19
15 3 -4 10 -11 15 -15z m60 3 c-3 -5 -12 -10 -18 -10 -7 0 -6 4 3 10 19 12 23
12 15 0z m385 -15 c-8 -9 -9 -15 -2 -15 6 0 14 5 17 10 3 6 12 10 18 10 7 -1
5 -6 -5 -13 -11 -9 -13 -18 -7 -29 6 -11 5 -19 -1 -23 -6 -4 -10 -3 -9 2 4 22
-2 35 -15 30 -8 -3 -13 0 -12 6 2 15 16 37 23 37 3 0 0 -7 -7 -15z m-680 -5
c0 -5 -2 -10 -4 -10 -3 0 -8 5 -11 10 -3 6 -1 10 4 10 6 0 11 -4 11 -10z
m1210 4 c0 -8 -19 -13 -24 -6 -3 5 1 9 9 9 8 0 15 -2 15 -3z m129 -3 c10 -7 7
-9 -12 -8 -15 1 -27 5 -27 10 0 10 22 9 39 -2z m-1398 -24 c-10 -9 -11 -8 -5
6 3 10 9 15 12 12 3 -3 0 -11 -7 -18z m207 -2 c-3 -3 -9 2 -12 12 -6 14 -5 15
5 6 7 -7 10 -15 7 -18z m102 17 c0 -4 -10 -9 -22 -9 -18 -2 -20 0 -8 7 18 12
30 13 30 2z m199 -10 c7 -13 6 -19 -2 -19 -7 0 -13 9 -13 19 0 10 1 18 3 18 1
0 7 -8 12 -18z m71 -14 c0 -19 -16 -5 -17 14 -2 18 0 20 7 8 5 -8 10 -18 10
-22z m317 16 c-3 -3 -12 -4 -19 -1 -8 3 -5 6 6 6 11 1 17 -2 13 -5z m263 2 c0
-3 -4 -8 -10 -11 -5 -3 -10 -1 -10 4 0 6 5 11 10 11 6 0 10 -2 10 -4z m86 -8
c4 -7 3 -8 -4 -4 -7 4 -12 0 -12 -10 0 -10 -3 -15 -6 -11 -7 6 2 37 10 37 3 0
8 -5 12 -12z m-872 -14 c5 -13 4 -14 -7 -6 -8 7 -18 8 -22 4 -5 -4 -5 -1 -1 6
10 17 23 15 30 -4z m893 -3 c0 -11 -7 -17 -14 -14 -9 4 -9 8 0 19 16 17 16 17
14 -5z m123 9 c0 -5 -2 -10 -4 -10 -3 0 -8 5 -11 10 -3 6 -1 10 4 10 6 0 11
-4 11 -10z m-1355 -10 c-3 -5 -1 -10 6 -10 7 0 10 -2 7 -5 -3 -3 -13 -2 -22 1
-14 5 -15 9 -4 15 17 11 20 11 13 -1z m235 4 c0 -8 -19 -13 -24 -6 -3 5 1 9 9
9 8 0 15 -2 15 -3z m575 -13 c-3 -6 -11 -11 -16 -11 -5 0 -4 6 3 14 14 16 24
13 13 -3z m75 9 c0 -5 -5 -10 -11 -10 -5 0 -7 5 -4 10 3 6 8 10 11 10 2 0 4
-4 4 -10z m-90 -69 c-1 -13 -29 45 -29 59 0 8 6 0 14 -19 8 -18 15 -36 15 -40z
m121 52 c13 -16 12 -17 -3 -4 -10 7 -18 15 -18 17 0 8 8 3 21 -13z m-780 -26
c-10 -9 -11 -8 -5 6 3 10 9 15 12 12 3 -3 0 -11 -7 -18z m1189 3 c0 -4 -7 -11
-16 -14 -13 -5 -14 -4 -6 7 7 8 8 18 4 22 -4 5 -1 5 6 1 6 -4 12 -11 12 -16z
m-1213 -5 c0 -8 -4 -15 -9 -15 -4 0 -8 7 -8 15 0 8 4 15 8 15 5 0 9 -7 9 -15z
m64 -2 c13 -16 12 -17 -3 -4 -10 7 -18 15 -18 17 0 8 8 3 21 -13z m380 -9 c8
-10 3 -10 -20 2 -17 9 -31 17 -31 19 0 8 40 -9 51 -21z m174 6 c-3 -5 -12 -10
-18 -10 -7 0 -6 4 3 10 19 12 23 12 15 0z m326 -12 c31 -34 22 -41 -10 -7
l-19 20 -16 -22 c-9 -13 -16 -19 -16 -15 0 10 30 46 38 46 3 0 13 -10 23 -22z
m112 7 c-3 -9 -8 -14 -10 -11 -3 3 -2 9 2 15 9 16 15 13 8 -4z m-1283 -2 c-8
-3 -22 -11 -30 -17 -13 -10 -13 -9 -1 7 7 9 21 17 30 16 13 0 14 -1 1 -6z
m180 3 c0 -2 -7 -7 -16 -10 -8 -3 -12 -2 -9 4 6 10 25 14 25 6z m1204 -11 c-4
-8 -11 -15 -16 -15 -6 0 -5 6 2 15 7 8 14 15 16 15 2 0 1 -7 -2 -15z m-1324
-11 c0 -2 -12 -4 -27 -4 -21 0 -24 3 -14 9 13 8 41 5 41 -5z m228 -9 c-3 -3
-9 2 -12 12 -6 14 -5 15 5 6 7 -7 10 -15 7 -18z m-104 -1 c3 -8 2 -12 -4 -9
-6 3 -10 10 -10 16 0 14 7 11 14 -7z m53 1 c0 -8 -6 -15 -13 -15 -8 0 -11 6
-8 15 4 8 9 15 13 15 4 0 8 -7 8 -15z m277 -1 c3 -8 2 -12 -4 -9 -6 3 -10 10
-10 16 0 14 7 11 14 -7z m43 1 c0 -8 -4 -12 -9 -9 -4 3 -8 9 -8 15 0 5 4 9 8
9 5 0 9 -7 9 -15z m103 5 c0 -5 -5 -10 -11 -10 -5 0 -7 5 -4 10 3 6 8 10 11
10 2 0 4 -4 4 -10z m641 -13 c-10 -9 -11 -8 -5 6 3 10 9 15 12 12 3 -3 0 -11
-7 -18z m-950 -10 c-10 -9 -11 -8 -5 6 3 10 9 15 12 12 3 -3 0 -11 -7 -18z
m483 15 c3 -5 -1 -9 -9 -9 -8 0 -12 4 -9 9 3 4 7 8 9 8 2 0 6 -4 9 -8z m81
-12 c3 -6 -1 -7 -9 -4 -18 7 -21 14 -7 14 6 0 13 -4 16 -10z m32 -5 c0 -8 -4
-12 -9 -9 -5 3 -6 10 -3 15 9 13 12 11 12 -6z m-63 -11 c3 -8 2 -12 -4 -9 -6
3 -10 10 -10 16 0 14 7 11 14 -7z m120 1 c11 -8 16 -15 10 -15 -5 0 -18 7 -28
15 -11 8 -16 15 -10 15 5 0 18 -7 28 -15z m36 -5 c6 -11 8 -20 6 -20 -3 0 -10
9 -16 20 -6 11 -8 20 -6 20 3 0 10 -9 16 -20z m-840 4 c0 -8 -19 -13 -24 -6
-3 5 1 9 9 9 8 0 15 -2 15 -3z m345 -4 c3 -6 -1 -7 -9 -4 -18 7 -21 14 -7 14
6 0 13 -4 16 -10z m199 2 c2 -4 -7 -8 -22 -9 -24 -2 -24 -1 -7 7 11 5 21 9 22
9 1 1 4 -3 7 -7z m526 5 c0 -2 -10 -12 -22 -23 l-23 -19 19 23 c18 21 26 27
26 19z m150 0 c0 -2 -10 -12 -22 -23 -14 -12 -18 -13 -10 -3 6 9 9 19 5 22 -3
4 1 7 10 7 10 0 17 -2 17 -3z m-1406 -16 c3 -5 -2 -15 -12 -22 -15 -12 -16
-12 -5 2 7 9 10 19 6 22 -3 4 -4 7 0 7 3 0 8 -4 11 -9z m80 -31 c-5 -5 -10 3
-11 18 -1 22 0 24 9 8 6 -10 6 -22 2 -26z m52 28 c5 4 5 3 1 -2 -12 -15 -34
-15 -34 0 0 9 4 11 12 4 7 -5 16 -6 21 -2z m724 -44 c0 -8 -60 32 -65 44 -2 7
11 1 30 -14 19 -14 35 -28 35 -30z m255 36 c4 -6 11 -7 17 -4 7 4 8 2 4 -4 -5
-9 -13 -9 -27 -2 -10 6 -19 13 -19 15 0 9 19 5 25 -5z m-1055 -4 c0 -3 -4 -8
-10 -11 -5 -3 -10 -1 -10 4 0 6 5 11 10 11 6 0 10 -2 10 -4z m656 -5 c-8 -12
19 -33 29 -23 5 4 5 1 1 -6 -6 -11 -12 -10 -27 4 -16 14 -18 34 -3 34 3 0 3
-4 0 -9z m454 -1 c0 -5 -5 -10 -11 -10 -5 0 -7 5 -4 10 3 6 8 10 11 10 2 0 4
-4 4 -10z m165 0 c-3 -5 -12 -10 -18 -10 -7 0 -6 4 3 10 19 12 23 12 15 0z
m-1420 -10 c-3 -5 -12 -10 -18 -10 -7 0 -6 4 3 10 19 12 23 12 15 0z m562 4
c-3 -3 -12 -4 -19 -1 -8 3 -5 6 6 6 11 1 17 -2 13 -5z m88 -4 c-3 -5 -12 -10
-18 -10 -7 0 -6 4 3 10 19 12 23 12 15 0z m70 -10 c10 -11 16 -20 13 -20 -3 0
-13 9 -23 20 -10 11 -16 20 -13 20 3 0 13 -9 23 -20z m391 8 c4 -7 4 -10 -1
-6 -4 4 -17 3 -29 -3 -20 -10 -20 -10 -2 5 24 19 23 19 32 4z m-900 -10 c4 -7
4 -10 -1 -6 -4 4 -15 2 -24 -5 -14 -11 -14 -10 -2 6 16 20 18 21 27 5z m-113
-23 c-7 -21 -12 -19 -10 4 0 11 5 18 9 15 4 -3 5 -11 1 -19z m807 15 c0 -5 -2
-10 -4 -10 -3 0 -8 5 -11 10 -3 6 -1 10 4 10 6 0 11 -4 11 -10z m630 6 c0 -3
-4 -8 -10 -11 -5 -3 -10 -1 -10 4 0 6 5 11 10 11 6 0 10 -2 10 -4z m-1249 -29
c-10 -9 -11 -8 -5 6 3 10 9 15 12 12 3 -3 0 -11 -7 -18z m837 -2 c-3 -3 -9 2
-12 12 -6 14 -5 15 5 6 7 -7 10 -15 7 -18z m-558 0 c-7 -9 -15 -13 -19 -10 -3
3 1 10 9 15 21 14 24 12 10 -5z m57 9 c-3 -3 -12 -4 -19 -1 -8 3 -5 6 6 6 11
1 17 -2 13 -5z m467 -31 c8 -19 2 -16 -25 13 -23 25 -23 26 -2 13 13 -7 25
-19 27 -26z m62 22 c-1 -8 -5 -17 -8 -21 -5 -4 -4 16 1 34 3 9 9 -1 7 -13z
m51 0 c0 -8 -4 -12 -9 -9 -5 3 -6 10 -3 15 9 13 12 11 12 -6z m213 5 c0 -5 -2
-10 -4 -10 -3 0 -8 5 -11 10 -3 6 -1 10 4 10 6 0 11 -4 11 -10z m-739 -23
c-10 -9 -11 -8 -5 6 3 10 9 15 12 12 3 -3 0 -11 -7 -18z m124 14 c-9 -8 -36
-10 -30 -2 2 4 11 8 20 8 8 0 13 -3 10 -6z m211 -10 c0 -11 -5 -17 -13 -14
-10 4 -11 9 -2 19 15 18 15 18 15 -5z m371 13 c-3 -3 -12 -4 -19 -1 -8 3 -5 6
6 6 11 1 17 -2 13 -5z m-992 -13 c3 -5 2 -12 -3 -15 -5 -3 -9 1 -9 9 0 17 3
19 12 6z m44 -5 c11 -14 6 -15 -27 -7 -4 1 8 21 12 21 2 0 9 -6 15 -14z m1076
-4 c-3 -3 -11 0 -18 7 -9 10 -8 11 6 5 10 -3 15 -9 12 -12z m-925 4 c0 -2 -6
-9 -14 -15 -11 -9 -16 -9 -22 0 -4 7 -3 9 4 5 6 -3 13 -2 17 4 6 10 15 14 15
6z m882 -10 c7 4 8 2 4 -5 -9 -13 -26 -5 -25 12 0 9 2 8 6 -1 2 -6 10 -9 15
-6z m-1166 -31 c1 -8 -2 -15 -8 -15 -6 0 -8 6 -5 14 3 7 1 19 -4 25 -6 8 -5 8
3 1 6 -5 13 -17 14 -25z m38 26 c3 -5 -1 -11 -9 -14 -9 -4 -12 -1 -8 9 6 16
10 17 17 5z m843 -6 c0 -6 -6 -12 -12 -12 -6 0 -12 6 -12 12 0 6 6 12 12 12 6
0 12 -6 12 -12z m368 -4 c-3 -6 -11 -11 -16 -11 -5 0 -4 6 3 14 14 16 24 13
13 -3z m50 -26 c9 -40 -3 -27 -15 15 -5 19 -6 29 -1 24 5 -5 12 -22 16 -39z
m-1575 30 c0 -7 -30 -13 -34 -7 -3 4 4 9 15 9 10 1 19 0 19 -2z m331 -18 c-10
-9 -11 -8 -5 6 3 10 9 15 12 12 3 -3 0 -11 -7 -18z m163 8 c-4 -8 -8 -15 -10
-15 -2 0 -4 7 -4 15 0 8 4 15 10 15 5 0 7 -7 4 -15z m143 -2 c0 -9 -4 -10 -14
-2 -7 6 -13 12 -13 14 0 1 6 2 13 2 8 0 14 -6 14 -14z m706 -3 c-3 -11 -9 -20
-15 -20 -5 0 -4 9 2 20 6 11 12 20 14 20 2 0 2 -9 -1 -20z m-928 0 c3 -6 -1
-7 -9 -4 -18 7 -21 14 -7 14 6 0 13 -4 16 -10z m265 -15 c-7 -8 -20 -15 -29
-14 -11 0 -9 3 7 9 12 5 22 15 22 21 0 7 3 9 6 6 4 -4 1 -13 -6 -22z m164 17
c2 -4 -5 -9 -17 -9 -17 -2 -19 0 -7 7 18 12 18 12 24 2z m151 -2 c3 -5 1 -10
-4 -10 -6 0 -11 5 -11 10 0 6 2 10 4 10 3 0 8 -4 11 -10z m-1078 -17 c-4 -3 1
-12 11 -20 15 -13 15 -13 -6 -3 -18 9 -27 8 -38 -1 -8 -6 -14 -7 -14 -2 0 6
10 15 23 21 26 13 33 14 24 5z m483 -2 c0 -6 -4 -12 -8 -15 -5 -3 -9 1 -9 9 0
8 4 15 9 15 4 0 8 -4 8 -9z m875 -1 c3 -5 1 -10 -4 -10 -6 0 -11 5 -11 10 0 6
2 10 4 10 3 0 8 -4 11 -10z m95 -10 c-6 -11 -13 -20 -16 -20 -2 0 0 9 6 20 6
11 13 20 16 20 2 0 0 -9 -6 -20z m-130 -10 c-6 -11 -13 -20 -16 -20 -2 0 0 9
6 20 6 11 13 20 16 20 2 0 0 -9 -6 -20z m-1096 -6 c3 -8 2 -12 -4 -9 -6 3 -10
10 -10 16 0 14 7 11 14 -7z m43 9 c-4 -3 -1 -13 6 -22 11 -14 10 -14 -5 -2
-16 12 -16 31 -1 31 4 0 3 -3 0 -7z m253 3 c0 -2 -8 -10 -17 -17 -16 -13 -17
-12 -4 4 13 16 21 21 21 13z m374 -4 c3 -5 -1 -9 -9 -9 -8 0 -12 4 -9 9 7 10
11 10 18 0z m493 1 c-4 -3 -2 -12 5 -20 8 -10 8 -17 1 -24 -8 -8 -13 -7 -18 2
-5 8 -4 10 3 5 7 -4 12 -3 12 3 0 5 -5 13 -10 16 -10 6 -5 25 7 25 4 0 3 -3 0
-7z m203 3 c0 -2 -8 -10 -17 -17 -16 -13 -17 -12 -4 4 13 16 21 21 21 13z
m-1288 -31 c3 -13 1 -22 -3 -19 -9 5 -13 44 -5 44 2 0 6 -11 8 -25z m455 3
c-3 -8 -6 -5 -6 6 -1 11 2 17 5 13 3 -3 4 -12 1 -19z m284 13 c-8 -5 -10 -14
-6 -22 6 -11 5 -11 -5 -2 -14 12 -6 33 13 33 8 0 7 -3 -2 -9z m139 5 c0 -2 -7
-6 -15 -10 -8 -3 -15 -1 -15 4 0 6 7 10 15 10 8 0 15 -2 15 -4z m-770 -26 c-6
-11 -13 -20 -16 -20 -2 0 0 9 6 20 6 11 13 20 16 20 2 0 0 -9 -6 -20z m270 16
c0 -3 -4 -8 -10 -11 -5 -3 -10 -1 -10 4 0 6 5 11 10 11 6 0 10 -2 10 -4z
m-684 -18 c4 -7 4 -10 -1 -6 -4 4 -14 3 -22 -4 -11 -8 -12 -7 -7 6 7 19 20 21
30 4z m654 0 c0 -4 -4 -8 -9 -8 -6 0 -12 4 -15 8 -3 5 1 9 9 9 8 0 15 -4 15
-9z m337 -10 c-3 -8 -6 -5 -6 6 -1 11 2 17 5 13 3 -3 4 -12 1 -19z m103 12 c0
-5 -2 -10 -4 -10 -3 0 -8 5 -11 10 -3 6 -1 10 4 10 6 0 11 -4 11 -10z m534 -1
c-4 -7 -44 0 -44 7 0 2 11 3 24 2 14 -1 23 -5 20 -9z m-297 -5 c-3 -3 -12 -4
-19 -1 -8 3 -5 6 6 6 11 1 17 -2 13 -5z"/>
<path d="M4982 2158 c-23 -40 -90 -138 -147 -216 -262 -362 -458 -554 -618
-608 -51 -18 -165 -24 -236 -14 -48 7 -52 -16 -4 -29 102 -29 246 -3 357 64
32 19 67 35 77 35 27 0 112 -90 180 -191 33 -49 64 -87 69 -84 16 10 12 19
-40 100 l-51 77 85 89 c108 113 134 151 206 302 75 157 127 298 151 411 11 50
21 101 24 114 10 41 -10 23 -53 -50z"/>
<path d="M6700 2222 c0 -11 210 -455 221 -466 16 -18 10 21 -12 71 -44 105
-193 403 -201 403 -4 0 -8 -4 -8 -8z"/>
<path d="M2820 2177 c0 -7 83 -192 185 -411 102 -219 185 -404 185 -411 0 -8
4 -16 9 -19 4 -3 43 -81 86 -173 92 -200 98 -208 144 -192 40 14 192 6 306
-16 43 -8 82 -12 87 -9 44 28 -181 69 -338 62 l-97 -4 -67 142 c-107 225 -105
193 -21 316 39 58 100 136 136 174 68 72 75 84 50 84 -29 0 -142 -129 -230
-263 -21 -32 -42 -56 -47 -55 -8 3 -54 99 -291 611 -75 162 -97 199 -97 164z"/>
<path d="M3498 2053 c-5 -56 13 -83 74 -114 42 -21 92 -26 86 -7 -2 6 -20 17
-40 24 -61 21 -87 43 -94 80 -7 36 -23 46 -26 17z"/>
<path d="M5447 2033 c-4 -3 -7 -52 -7 -107 -1 -356 -41 -670 -112 -881 -56
-165 -174 -333 -283 -402 -43 -27 -52 -42 -28 -50 20 -7 134 88 193 162 98
125 169 297 210 512 31 167 40 268 47 531 6 228 3 259 -20 235z"/>
<path d="M42 1908 c-30 -39 -41 -69 -24 -67 9 0 72 86 72 99 0 20 -17 9 -48
-32z"/>
<path d="M3420 1859 c0 -17 32 -57 183 -233 164 -191 267 -296 289 -296 29 0
22 12 -48 80 -71 70 -269 294 -347 394 -47 59 -77 81 -77 55z"/>
<path d="M4045 1830 c-10 -11 -60 -40 -111 -66 -52 -25 -94 -53 -94 -60 0 -23
48 -28 96 -9 65 25 163 104 164 133 0 28 -30 30 -55 2z"/>
<path d="M6930 1804 c0 -14 434 -553 441 -548 13 8 14 7 -248 336 -51 64 -93
121 -93 125 0 4 84 5 187 1 543 -20 817 -27 822 -22 14 14 -32 24 -114 24 -49
0 -277 7 -505 16 l-415 15 -30 30 c-30 28 -45 36 -45 23z"/>
<path d="M6064 1703 c-67 -82 -163 -272 -200 -398 -46 -158 -43 -330 7 -383
10 -12 19 -24 19 -27 0 -4 -32 -42 -70 -86 l-71 -80 68 -64 c37 -35 74 -64 81
-65 26 0 10 30 -39 74 -33 30 -46 48 -38 51 77 27 565 136 675 151 61 7 83 19
69 33 -17 17 -274 -31 -595 -112 -74 -19 -137 -33 -139 -31 -20 17 455 490
662 659 31 26 57 51 57 56 0 26 -29 14 -88 -37 -172 -150 -372 -336 -456 -427
l-93 -100 -18 26 c-50 77 -46 200 12 382 52 161 122 291 206 382 35 38 42 63
17 63 -5 0 -35 -30 -66 -67z"/>
<path d="M8100 1701 c0 -5 12 -14 28 -19 15 -6 127 -48 250 -95 144 -55 222
-81 222 -72 0 7 -8 15 -17 18 -10 3 -117 44 -238 91 -221 86 -245 94 -245 77z"/>
<path d="M6910 1692 c0 -5 13 -44 29 -88 16 -43 61 -200 100 -349 40 -148 86
-314 102 -368 16 -53 28 -101 25 -106 -3 -4 -53 -41 -111 -81 -96 -66 -121
-90 -95 -90 8 0 125 79 211 143 17 12 28 28 26 37 -3 8 -21 69 -41 135 -21 66
-55 190 -77 275 -85 332 -139 500 -160 500 -5 0 -9 -4 -9 -8z"/>
<path d="M5639 1675 c-13 -20 -20 -135 -9 -135 6 0 13 6 16 14 7 19 0 133 -7
121z"/>
<path d="M5606 1468 c-23 -110 -59 -383 -67 -513 -16 -225 -2 -488 23 -438 2
4 2 53 -2 108 -9 177 6 435 39 647 17 109 31 202 31 208 0 20 -20 10 -24 -12z"/>
<path d="M272 1157 c-51 -52 -68 -142 -35 -179 16 -18 15 -20 -21 -50 l-38
-31 4 -68 c5 -60 27 -117 40 -103 3 3 -1 26 -8 51 -8 25 -14 62 -14 82 0 31 5
39 38 57 l37 22 50 -34 c49 -34 64 -32 65 6 0 10 -3 11 -11 3 -9 -9 -25 -1
-66 29 -67 51 -73 62 -64 119 6 35 16 54 42 77 24 22 31 34 23 41 -7 8 -19 1
-42 -22z"/>
<path d="M4175 1137 c-7 -17 79 -355 94 -370 19 -19 14 13 -29 178 -22 85 -40
164 -40 175 0 24 -18 36 -25 17z"/>
<path d="M4560 1088 c0 -53 86 -199 171 -292 80 -88 209 -190 223 -176 8 9 -1
21 -34 48 -25 20 -88 79 -141 131 -85 85 -102 109 -149 204 -53 107 -70 127
-70 85z"/>
<path d="M7986 1043 c-3 -3 -3 -10 0 -14 7 -12 34 -11 34 0 0 11 -26 22 -34
14z"/>
<path d="M7375 1003 c22 -91 28 -310 9 -400 -3 -15 0 -23 9 -23 10 0 16 19 21
61 16 159 -2 389 -31 389 -11 0 -13 -7 -8 -27z"/>
<path d="M3865 940 c-4 -6 -5 -13 -4 -14 2 -2 37 -31 78 -66 185 -158 341
-275 414 -311 169 -82 483 -171 1133 -324 342 -80 629 -145 638 -145 9 0 16 6
16 13 0 8 -29 20 -75 31 l-75 18 -2 236 c-3 202 -5 237 -18 237 -13 0 -14 -32
-11 -232 1 -128 1 -233 -1 -233 -3 0 -252 58 -555 129 -560 131 -860 217
-1024 294 -71 32 -244 160 -389 287 -85 75 -116 94 -125 80z"/>
<path d="M6620 917 c0 -21 6 -22 235 -57 298 -45 285 -44 285 -31 0 19 -33 27
-255 60 -115 18 -222 35 -237 38 -21 4 -28 1 -28 -10z"/>
<path d="M6909 835 c-1 -6 -2 -196 -3 -422 -1 -324 2 -413 12 -413 15 0 17 75
13 505 -2 176 -7 324 -12 330 -6 6 -9 6 -10 0z"/>
<path d="M250 730 c0 -14 22 -24 143 -64 108 -36 157 -44 157 -26 0 6 -8 10
-17 10 -10 0 -76 20 -148 45 -149 51 -135 48 -135 35z"/>
<path d="M3375 630 c-111 -29 -215 -71 -215 -86 0 -17 -8 -19 79 16 106 43
179 60 292 67 54 3 99 10 99 15 0 15 -183 8 -255 -12z"/>
<path d="M476 566 c-56 -52 -57 -54 -54 -102 2 -28 7 -47 13 -44 6 3 8 22 7
43 -4 36 0 42 54 91 33 30 53 55 47 59 -5 3 -36 -18 -67 -47z"/>
<path d="M3585 363 c-88 -24 -175 -52 -195 -60 -67 -29 -12 -24 111 11 68 19
161 45 207 57 45 11 82 25 82 30 0 16 -41 8 -205 -38z"/>
<path d="M462 367 c47 -38 86 -58 93 -47 3 5 -15 23 -41 40 -57 36 -93 41 -52
7z"/>
<path d="M556 257 c5 -8 49 -58 97 -111 81 -88 107 -109 107 -88 0 13 -181
207 -197 210 -11 3 -13 0 -7 -11z"/>
<path d="M3193 228 c-96 -38 -127 -59 -85 -57 27 0 206 75 210 88 6 17 -16 12
-125 -31z"/>
<path d="M3975 174 c-279 -87 -365 -116 -365 -124 0 -6 2 -10 5 -10 2 0 108
31 236 70 127 39 233 70 235 70 2 0 4 5 4 10 0 15 -26 11 -115 -16z"/>
<path d="M3405 25 l-120 -23 65 -1 c74 -1 207 22 223 38 16 16 -27 12 -168
-14z"/>
</g>
</svg>
